# xmcd
#
# Track frame offsets: 
#        150
#        20424
#        34276
#        53253
#        67472
#        82382
#        114211
#        124219
#        149140
#        163535
#        177316
#        190089
#        204331
#        222524
#        232464
#
# Disc length: 3303 seconds
#
# Revision: 0
# Processed by: cddbd v1.5.2PL0 Copyright (c) Steve Scherf et al.
# Submitted via: ExactAudioCopy v1.1
#
DISCID=ea0ce50f
DTITLE=ARTISTAS VARIOS - RUSIA CON PASION
DYEAR=2018
DGENRE=Alternative
TTITLE0=EL ZURDO BESSIO - EL HIMNO
TTITLE1=EDU PITUFO LOMBARDO - DESCOLGANDO EL CIELO
TTITLE2=EL ALEMAN GERARDO DORADO - MAESTRO
TTITLE3=TABARE CARDOZO - URUGUAYOS CAMPEONES
TTITLE4=TRIPLE NELSON - CELESTE CANCION
TTITLE5=AGARRATE CATALINA - USTED
TTITLE6=ALEJANDRO BALBIS - URUGUAYOS CAMPEONES
TTITLE7=TABARE CARDOZO - BARBOSA
TTITLE8=CANARIO LUNA and LOS 8 DE MOMO - GLORIOSA CELESTE
TTITLE9=EL ALEMAN - JUGADORES DEL PASADO
TTITLE10=LOS 8 DE MOMO - LA PASION VOLVERA
TTITLE11=TABARE CARDOZO - EL JUEGO
TTITLE12=EMILIANO Y EL ZURDO - SIN DARTE CUENTA
TTITLE13=ALEJANDRO BALBIS Y LABARRA - VAYAN PELANDO LAS CHAUCHAS
TTITLE14=LA TUERCA - UN GRITO CELESTE
EXTD=
EXTT0=
EXTT1=
EXTT2=
EXTT3=
EXTT4=
EXTT5=
EXTT6=
EXTT7=
EXTT8=
EXTT9=
EXTT10=
EXTT11=
EXTT12=
EXTT13=
EXTT14=
PLAYORDER=
